# xmcd CD database file
#
# Track frame offsets:
#	150
#	25689
#	47215
#	70834
#	99634
#	118785
#	146954
#	168486
#	180348
#	194497
#	218092
#	233293
#	258154
#	280884
#	303775
#
# Disc length: 4254 seconds
#
# Revision: 0
# Processed by: cddbd v1.5.1PL2 Copyright (c) Steve Scherf et al.
# Submitted via: CDex 1.50
#
DISCID=cf109c0f
DTITLE=Luigi Trussardi - L'amour dans l'âme
DYEAR=1996
DGENRE=Jazz
TTITLE0=The way you look tonight
TTITLE1=Trois petits points
TTITLE2=You don't know what love is
TTITLE3=Martine' smile
TTITLE4=Nica's tempo
TTITLE5=Spring is here
TTITLE6=Little Niles
TTITLE7=Luisa
TTITLE8=Tolu
TTITLE9=Beautifull love
TTITLE10=Canto triste
TTITLE11=One single slap
TTITLE12=Nice's Queen
TTITLE13=One oscar for pettiford
TTITLE14=Olha Maria
EXTD=YEAR: 1996
EXTT0=
EXTT1=
EXTT2=
EXTT3=
EXTT4=
EXTT5=
EXTT6=
EXTT7=
EXTT8=
EXTT9=
EXTT10=
EXTT11=
EXTT12=
EXTT13=
EXTT14=
PLAYORDER=
